<svg width="985" height="27" viewBox="0 0 985 27" fill="none" xmlns="http://www.w3.org/2000/svg">
<path d="M8.41122 12.5H984.112" stroke="white"/>
<path d="M8.68555 4.72675C9.20416 6.75337 9.90608 8.66083 10.7998 10.0012V10.0021C11.8978 11.649 13.5731 12.8844 15.2842 13.7141C13.7189 14.4739 12.184 15.573 11.0938 17.0158L10.8008 17.4279C9.90654 18.7695 9.20475 20.6762 8.68652 22.7023C8.22103 20.8842 7.60795 19.1626 6.84082 17.8596L6.57227 17.4289C5.47377 15.7803 3.79827 14.5458 2.08691 13.716C3.65291 12.9562 5.18848 11.8576 6.2793 10.4152L6.57129 10.0041H6.57227C7.46665 8.66278 8.16733 6.75397 8.68555 4.72675Z" fill="white" stroke="white" stroke-width="1.5625"/>
</svg>
