<svg width="240" height="90" viewBox="0 0 240 90" fill="none" xmlns="http://www.w3.org/2000/svg">
<path d="M225.345 48.8742L224.984 48.5289L224.293 49.252L224.655 49.5973L225.345 48.8742ZM225 49.2358L224.655 49.5973L235.196 59.6666L235.541 59.3051L235.886 58.9435L225.345 48.8742L225 49.2358Z" fill="white"/>
<ellipse cx="221.657" cy="46.6569" rx="3.5" ry="4.5" transform="rotate(-45 221.657 46.6569)" fill="#6C812B"/>
<path d="M211.283 35.8117L210.92 35.4677L210.232 36.1932L210.595 36.5373L211.283 35.8117ZM210.939 36.1745L210.595 36.5373L219.729 45.1999L220.073 44.8371L220.417 44.4743L211.283 35.8117L210.939 36.1745Z" fill="white"/>
<path d="M19.1602 23.2852C19.7461 23.9362 20.1758 24.6523 20.4492 25.4336C20.7357 26.2018 20.8789 27.1003 20.8789 28.1289C20.8789 30.5768 19.974 32.5951 18.1641 34.1836C16.3542 35.7721 14.1081 36.5664 11.4258 36.5664C10.1888 36.5664 8.95182 36.3776 7.71484 36C6.47786 35.6094 5.41016 35.1406 4.51172 34.5938L3.67188 36.0195H2.10938L1.83594 26.5273H3.41797C3.74349 27.6992 4.12109 28.7604 4.55078 29.7109C4.99349 30.6484 5.57292 31.5273 6.28906 32.3477C6.96615 33.1159 7.75391 33.7279 8.65234 34.1836C9.5638 34.6393 10.6185 34.8672 11.8164 34.8672C12.7148 34.8672 13.4961 34.75 14.1602 34.5156C14.8372 34.2812 15.3841 33.9492 15.8008 33.5195C16.2174 33.0898 16.5234 32.5885 16.7188 32.0156C16.9271 31.4297 17.0312 30.7591 17.0312 30.0039C17.0312 28.8971 16.7188 27.8685 16.0938 26.918C15.4688 25.9544 14.5378 25.2253 13.3008 24.7305C12.4544 24.3919 11.4844 24.0208 10.3906 23.6172C9.29688 23.2005 8.35286 22.8099 7.55859 22.4453C5.99609 21.7422 4.77865 20.8242 3.90625 19.6914C3.04688 18.5456 2.61719 17.0547 2.61719 15.2188C2.61719 14.1641 2.83203 13.181 3.26172 12.2695C3.69141 11.3581 4.30339 10.5443 5.09766 9.82812C5.85286 9.15104 6.74479 8.6237 7.77344 8.24609C8.80208 7.85547 9.8763 7.66016 10.9961 7.66016C12.2721 7.66016 13.4115 7.85547 14.4141 8.24609C15.4297 8.63672 16.3542 9.09245 17.1875 9.61328L17.9883 8.28516H19.5508L19.707 17.4844H18.125C17.8385 16.4297 17.513 15.4206 17.1484 14.457C16.7969 13.4935 16.3346 12.6211 15.7617 11.8398C15.2018 11.0846 14.5182 10.4857 13.7109 10.043C12.9036 9.58724 11.9141 9.35938 10.7422 9.35938C9.50521 9.35938 8.45052 9.75651 7.57812 10.5508C6.70573 11.3451 6.26953 12.3151 6.26953 13.4609C6.26953 14.6589 6.54948 15.6549 7.10938 16.4492C7.66927 17.2305 8.48307 17.875 9.55078 18.3828C10.5013 18.8385 11.4323 19.2357 12.3438 19.5742C13.2682 19.8997 14.1602 20.2513 15.0195 20.6289C15.8008 20.9674 16.5495 21.3516 17.2656 21.7812C17.9948 22.2109 18.6263 22.7122 19.1602 23.2852ZM44.7852 36H35.332V34.7109C35.6315 34.6849 35.9635 34.6589 36.3281 34.6328C36.6927 34.6068 36.9922 34.5547 37.2266 34.4766C37.5911 34.3594 37.8581 34.1576 38.0273 33.8711C38.2096 33.5716 38.3008 33.1875 38.3008 32.7188V22.8164C38.3008 21.4492 37.9753 20.3945 37.3242 19.6523C36.6862 18.9102 35.9049 18.5391 34.9805 18.5391C34.3034 18.5391 33.6719 18.6497 33.0859 18.8711C32.513 19.0794 31.9987 19.3398 31.543 19.6523C31.1003 19.9779 30.7617 20.3034 30.5273 20.6289C30.293 20.9544 30.1107 21.2279 29.9805 21.4492V32.5234C29.9805 32.9661 30.0651 33.3307 30.2344 33.6172C30.4167 33.9036 30.6901 34.125 31.0547 34.2812C31.3411 34.4115 31.6341 34.5091 31.9336 34.5742C32.2461 34.6393 32.5846 34.6849 32.9492 34.7109V36H23.4961V34.7109C23.7956 34.6849 24.1081 34.6589 24.4336 34.6328C24.7591 34.5938 25.0326 34.5417 25.2539 34.4766C25.6185 34.3594 25.8919 34.1576 26.0742 33.8711C26.2565 33.5716 26.3477 33.1875 26.3477 32.7188V10.2969C26.3477 9.85417 26.2435 9.41146 26.0352 8.96875C25.8398 8.52604 25.5794 8.19401 25.2539 7.97266C25.0195 7.80339 24.6029 7.6862 24.0039 7.62109C23.418 7.54297 22.9427 7.49089 22.5781 7.46484V6.21484L29.707 5.76562L29.9805 6.05859V19.4961H30.0586C30.4883 19.0664 30.8789 18.6888 31.2305 18.3633C31.582 18.0247 32.0443 17.6732 32.6172 17.3086C33.112 16.9961 33.6914 16.7357 34.3555 16.5273C35.0326 16.319 35.7878 16.2148 36.6211 16.2148C38.3398 16.2148 39.6615 16.7617 40.5859 17.8555C41.5104 18.9362 41.9727 20.4987 41.9727 22.543V32.5625C41.9727 33.0182 42.0508 33.3893 42.207 33.6758C42.3763 33.9492 42.6497 34.1641 43.0273 34.3203C43.3268 34.4375 43.5938 34.5286 43.8281 34.5938C44.0755 34.6458 44.3945 34.6849 44.7852 34.7109V36ZM65.3906 35.6484C64.7786 35.8698 64.2383 36.0456 63.7695 36.1758C63.3138 36.319 62.793 36.3906 62.207 36.3906C61.1914 36.3906 60.3776 36.1562 59.7656 35.6875C59.1667 35.2057 58.7826 34.5091 58.6133 33.5977H58.4961C57.6497 34.5352 56.7383 35.2513 55.7617 35.7461C54.7982 36.2409 53.6328 36.4883 52.2656 36.4883C50.8203 36.4883 49.6289 36.0456 48.6914 35.1602C47.7669 34.2747 47.3047 33.1159 47.3047 31.6836C47.3047 30.9414 47.4089 30.2773 47.6172 29.6914C47.8255 29.1055 48.138 28.5781 48.5547 28.1094C48.8802 27.7188 49.3099 27.3737 49.8438 27.0742C50.3776 26.7617 50.8789 26.5143 51.3477 26.332C51.9336 26.1107 53.1185 25.7005 54.9023 25.1016C56.6992 24.5026 57.9102 24.0339 58.5352 23.6953V21.7617C58.5352 21.5924 58.4961 21.2669 58.418 20.7852C58.3529 20.3034 58.2031 19.8477 57.9688 19.418C57.7083 18.9362 57.3372 18.5195 56.8555 18.168C56.3867 17.8034 55.7161 17.6211 54.8438 17.6211C54.2448 17.6211 53.6849 17.7253 53.1641 17.9336C52.6562 18.1289 52.2982 18.3372 52.0898 18.5586C52.0898 18.819 52.1484 19.2031 52.2656 19.7109C52.3958 20.2188 52.4609 20.6875 52.4609 21.1172C52.4609 21.5729 52.2526 21.9896 51.8359 22.3672C51.4323 22.7448 50.8659 22.9336 50.1367 22.9336C49.4857 22.9336 49.0039 22.7057 48.6914 22.25C48.3919 21.7812 48.2422 21.2604 48.2422 20.6875C48.2422 20.0885 48.4505 19.5156 48.8672 18.9688C49.2969 18.4219 49.8503 17.9336 50.5273 17.5039C51.1133 17.1393 51.8229 16.8333 52.6562 16.5859C53.4896 16.3255 54.3034 16.1953 55.0977 16.1953C56.1914 16.1953 57.1419 16.2734 57.9492 16.4297C58.7695 16.5729 59.5117 16.8919 60.1758 17.3867C60.8398 17.8685 61.3411 18.526 61.6797 19.3594C62.0312 20.1797 62.207 21.2409 62.207 22.543C62.207 24.4049 62.1875 26.0586 62.1484 27.5039C62.1094 28.9362 62.0898 30.5052 62.0898 32.2109C62.0898 32.7188 62.1745 33.1224 62.3438 33.4219C62.526 33.7214 62.7995 33.9753 63.1641 34.1836C63.3594 34.3008 63.6654 34.3659 64.082 34.3789C64.5117 34.3919 64.9479 34.3984 65.3906 34.3984V35.6484ZM58.5742 25.3359C57.4674 25.6615 56.4974 25.9805 55.6641 26.293C54.8307 26.6055 54.056 26.9961 53.3398 27.4648C52.6888 27.9076 52.1745 28.4349 51.7969 29.0469C51.4193 29.6458 51.2305 30.362 51.2305 31.1953C51.2305 32.276 51.5104 33.0703 52.0703 33.5781C52.6432 34.0859 53.3659 34.3398 54.2383 34.3398C55.1628 34.3398 55.9766 34.1185 56.6797 33.6758C57.3828 33.2201 57.9753 32.6862 58.457 32.0742L58.5742 25.3359ZM87.7148 36H81.8945C80.8789 34.5286 79.7917 32.9531 78.6328 31.2734C77.474 29.5938 76.2695 27.9596 75.0195 26.3711L73.418 27.875V32.4453C73.418 32.9141 73.5026 33.3047 73.6719 33.6172C73.8411 33.9167 74.1146 34.138 74.4922 34.2812C74.8047 34.4115 75.1042 34.5091 75.3906 34.5742C75.6771 34.6393 76.0091 34.6849 76.3867 34.7109V36H66.9336V34.7109C67.2331 34.6849 67.5456 34.6589 67.8711 34.6328C68.1966 34.5938 68.4701 34.5417 68.6914 34.4766C69.056 34.3594 69.3294 34.1576 69.5117 33.8711C69.694 33.5716 69.7852 33.1875 69.7852 32.7188V10.3359C69.7852 9.85417 69.681 9.40495 69.4727 8.98828C69.2773 8.55859 69.0169 8.23307 68.6914 8.01172C68.418 7.80339 67.9883 7.66667 67.4023 7.60156C66.8294 7.53646 66.3672 7.49089 66.0156 7.46484V6.21484L73.1445 5.76562L73.418 6.05859V26.4297C74.4336 25.4141 75.5273 24.3268 76.6992 23.168C77.8841 21.9961 78.8802 20.9544 79.6875 20.043C79.7917 19.9258 79.9023 19.776 80.0195 19.5938C80.1497 19.3984 80.2148 19.2422 80.2148 19.125C80.2148 18.7734 79.9284 18.513 79.3555 18.3438C78.7956 18.1745 78.2552 18.0573 77.7344 17.9922V16.7422H86.2109V17.9531C85.1172 18.2786 84.1471 18.6888 83.3008 19.1836C82.4674 19.6654 81.8294 20.1016 81.3867 20.4922C81.0742 20.7526 80.6315 21.1758 80.0586 21.7617C79.4857 22.3477 78.6849 23.1159 77.6562 24.0664C78.724 25.3815 79.9219 26.957 81.25 28.793C82.5911 30.6289 83.5677 31.957 84.1797 32.7773C84.7526 33.5456 85.2669 34.0469 85.7227 34.2812C86.1784 34.5156 86.8424 34.6589 87.7148 34.7109V36ZM105.859 31.4688C105.052 33.0052 103.971 34.2292 102.617 35.1406C101.263 36.0521 99.707 36.5078 97.9492 36.5078C96.3997 36.5078 95.0391 36.2344 93.8672 35.6875C92.7083 35.1406 91.7513 34.3984 90.9961 33.4609C90.2409 32.5234 89.6745 31.4297 89.2969 30.1797C88.9323 28.9297 88.75 27.6081 88.75 26.2148C88.75 24.9648 88.9453 23.7409 89.3359 22.543C89.7396 21.332 90.3255 20.2448 91.0938 19.2812C91.8359 18.3568 92.7539 17.6146 93.8477 17.0547C94.9544 16.4818 96.1914 16.1953 97.5586 16.1953C98.9648 16.1953 100.169 16.4167 101.172 16.8594C102.174 17.3021 102.988 17.9076 103.613 18.6758C104.212 19.4049 104.655 20.2643 104.941 21.2539C105.241 22.2435 105.391 23.3177 105.391 24.4766V25.7656H92.6367C92.6367 27.0286 92.7539 28.1745 92.9883 29.2031C93.2357 30.2318 93.6198 31.1367 94.1406 31.918C94.6484 32.6732 95.3125 33.2721 96.1328 33.7148C96.9531 34.1445 97.9297 34.3594 99.0625 34.3594C100.221 34.3594 101.217 34.0924 102.051 33.5586C102.897 33.0117 103.711 32.0352 104.492 30.6289L105.859 31.4688ZM101.543 24.125C101.543 23.3958 101.478 22.6146 101.348 21.7812C101.23 20.9479 101.035 20.2513 100.762 19.6914C100.462 19.0924 100.052 18.6042 99.5312 18.2266C99.0104 17.849 98.3398 17.6602 97.5195 17.6602C96.1523 17.6602 95.013 18.2331 94.1016 19.3789C93.2031 20.5117 92.7148 22.0938 92.6367 24.125H101.543ZM127.09 36H117.773V34.7109C118.073 34.6849 118.379 34.6589 118.691 34.6328C119.017 34.6068 119.297 34.5547 119.531 34.4766C119.896 34.3594 120.163 34.1576 120.332 33.8711C120.514 33.5716 120.605 33.1875 120.605 32.7188V20.8242C120.605 20.4076 120.508 20.0299 120.312 19.6914C120.13 19.3398 119.87 19.0469 119.531 18.8125C119.284 18.6562 118.926 18.526 118.457 18.4219C117.988 18.3047 117.559 18.2331 117.168 18.207V16.9375L123.965 16.5078L124.238 16.7812V32.4844C124.238 32.9401 124.323 33.3177 124.492 33.6172C124.674 33.9167 124.954 34.138 125.332 34.2812C125.618 34.3984 125.898 34.4961 126.172 34.5742C126.445 34.6393 126.751 34.6849 127.09 34.7109V36ZM124.629 8.91016C124.629 9.65234 124.382 10.3034 123.887 10.8633C123.405 11.4102 122.806 11.6836 122.09 11.6836C121.426 11.6836 120.846 11.4232 120.352 10.9023C119.87 10.3685 119.629 9.76302 119.629 9.08594C119.629 8.36979 119.87 7.74479 120.352 7.21094C120.846 6.67708 121.426 6.41016 122.09 6.41016C122.832 6.41016 123.438 6.66406 123.906 7.17188C124.388 7.66667 124.629 8.24609 124.629 8.91016ZM141.348 35.1602C140.501 35.5117 139.701 35.8047 138.945 36.0391C138.19 36.2865 137.266 36.4102 136.172 36.4102C134.557 36.4102 133.418 36.0065 132.754 35.1992C132.103 34.3789 131.777 33.2266 131.777 31.7422V18.6953H128.301V16.8203H131.855V10.8242H135.41V16.8203H140.938V18.6953H135.449V29.457C135.449 30.2643 135.475 30.9414 135.527 31.4883C135.592 32.0221 135.736 32.4909 135.957 32.8945C136.165 33.2721 136.478 33.5586 136.895 33.7539C137.311 33.9492 137.871 34.0469 138.574 34.0469C138.9 34.0469 139.375 34.0208 140 33.9688C140.638 33.9036 141.087 33.8255 141.348 33.7344V35.1602Z" fill="white"/>
<path d="M153.375 31.8438C153.438 31.8646 153.521 31.875 153.625 31.875H154.375C156 31.875 157.635 31.6562 159.281 31.2188C160.927 30.7812 162.417 30.1771 163.75 29.4062C165.083 28.6146 166.167 27.6771 167 26.5938C167.833 25.4896 168.25 24.2812 168.25 22.9688C168.25 22.2604 168.094 21.6354 167.781 21.0938C167.469 20.5312 167.031 20.0625 166.469 19.6875C165.927 19.3125 165.26 19.0312 164.469 18.8438C163.698 18.6354 162.844 18.5312 161.906 18.5312C160.26 18.5312 158.656 18.7396 157.094 19.1562C155.531 19.5729 154.062 20.1458 152.688 20.875C151.312 21.5833 150.052 22.4271 148.906 23.4062C147.76 24.3646 146.771 25.4167 145.938 26.5625C145.104 27.6875 144.458 28.8646 144 30.0938C143.542 31.3229 143.312 32.5521 143.312 33.7812C143.312 35.0104 143.542 36.1771 144 37.2812C145.438 37.3229 146.781 37.4271 148.031 37.5938C149.281 37.7604 150.365 38.0208 151.281 38.375C152.198 38.7083 152.917 39.1458 153.438 39.6875C153.958 40.2292 154.219 40.8854 154.219 41.6562C154.219 42.4896 153.906 43.125 153.281 43.5625C152.656 44 151.875 44.2188 150.938 44.2188C150.188 44.2188 149.417 44.0938 148.625 43.8438C147.833 43.5938 147.062 43.25 146.312 42.8125C145.583 42.3542 144.875 41.8125 144.188 41.1875C143.521 40.5417 142.917 39.8333 142.375 39.0625C140.062 39.25 137.917 39.7917 135.938 40.6875C133.979 41.5625 132.281 42.7083 130.844 44.125C129.427 45.5208 128.312 47.1354 127.5 48.9688C126.688 50.7812 126.281 52.6979 126.281 54.7188C126.281 56.3646 126.552 57.8542 127.094 59.1875C127.656 60.5 128.479 61.625 129.562 62.5625C130.667 63.5 132.031 64.2188 133.656 64.7188C135.302 65.2188 137.198 65.4688 139.344 65.4688C141.719 65.4688 143.969 65.1042 146.094 64.375C148.24 63.6667 150.219 62.7604 152.031 61.6562C153.844 60.5521 155.49 59.3438 156.969 58.0312C158.448 56.6979 159.729 55.4375 160.812 54.25C161.917 53.0625 162.802 52.0208 163.469 51.125C164.135 50.2083 164.573 49.6146 164.781 49.3438L165.906 50.2188C165.427 50.9062 164.781 51.8125 163.969 52.9375C163.156 54.0417 162.167 55.2188 161 56.4688C159.854 57.7188 158.521 58.9792 157 60.25C155.5 61.5 153.812 62.6354 151.938 63.6562C150.083 64.6771 148.052 65.5 145.844 66.125C143.635 66.7708 141.25 67.0938 138.688 67.0938C135.875 67.0938 133.448 66.7396 131.406 66.0312C129.365 65.3229 127.667 64.3646 126.312 63.1562C124.979 61.9688 123.99 60.5938 123.344 59.0312C122.698 57.4479 122.375 55.7812 122.375 54.0312C122.375 52.8021 122.531 51.5521 122.844 50.2812C123.156 49.0104 123.635 47.7708 124.281 46.5625C124.927 45.3542 125.76 44.2083 126.781 43.125C127.802 42.0417 129.01 41.0833 130.406 40.25C131.802 39.4167 133.406 38.7396 135.219 38.2188C137.031 37.6979 139.062 37.3854 141.312 37.2812C140.938 36.5312 140.646 35.75 140.438 34.9375C140.229 34.1042 140.125 33.25 140.125 32.375C140.125 30.7708 140.396 29.2604 140.938 27.8438C141.479 26.4062 142.219 25.0938 143.156 23.9062C144.115 22.6979 145.229 21.625 146.5 20.6875C147.792 19.75 149.167 18.9583 150.625 18.3125C152.083 17.6458 153.594 17.1458 155.156 16.8125C156.74 16.4583 158.302 16.2812 159.844 16.2812C161.427 16.2812 162.833 16.4479 164.062 16.7812C165.312 17.0938 166.365 17.5417 167.219 18.125C168.073 18.7083 168.729 19.4167 169.188 20.25C169.646 21.0625 169.875 21.9583 169.875 22.9375C169.875 24.0208 169.646 25.0417 169.188 26C168.75 26.9583 168.146 27.8333 167.375 28.625C166.625 29.3958 165.74 30.0938 164.719 30.7188C163.719 31.3229 162.646 31.8333 161.5 32.25C160.375 32.6667 159.208 32.9896 158 33.2188C156.792 33.4271 155.625 33.5312 154.5 33.5312C154.125 33.5312 153.823 33.5208 153.594 33.5C153.365 33.4792 153.229 33.4688 153.188 33.4688L153.375 31.8438ZM152.562 41.5938C152.562 41.0938 152.333 40.6875 151.875 40.375C151.438 40.0417 150.854 39.7812 150.125 39.5938C149.417 39.4062 148.604 39.2708 147.688 39.1875C146.792 39.0833 145.875 39.0208 144.938 39C145.333 39.5833 145.771 40.1042 146.25 40.5625C146.75 41 147.26 41.375 147.781 41.6875C148.302 42 148.823 42.2396 149.344 42.4062C149.885 42.5729 150.396 42.6562 150.875 42.6562C151.438 42.6562 151.854 42.5521 152.125 42.3438C152.417 42.1354 152.562 41.8854 152.562 41.5938ZM189.656 40.2188C189.385 40.7604 189 41.4688 188.5 42.3438C188.021 43.2188 187.5 44.1875 186.938 45.25C186.375 46.2917 185.802 47.3854 185.219 48.5312C184.656 49.6771 184.135 50.8021 183.656 51.9062C183.198 52.9896 182.812 54.0208 182.5 55C182.208 55.9583 182.062 56.7708 182.062 57.4375C182.062 58.1042 182.188 58.5417 182.438 58.75C182.708 58.9375 183.052 59.0312 183.469 59.0312C184.073 59.0312 184.688 58.8542 185.312 58.5C185.958 58.1458 186.583 57.6875 187.188 57.125C187.812 56.5625 188.417 55.9271 189 55.2188C189.583 54.5104 190.125 53.8021 190.625 53.0938C191.146 52.3646 191.615 51.6771 192.031 51.0312C192.448 50.3646 192.802 49.8021 193.094 49.3438L194.219 50.2188C193.865 50.8854 193.448 51.6042 192.969 52.375C192.49 53.1458 191.958 53.9271 191.375 54.7188C190.812 55.4896 190.198 56.2396 189.531 56.9688C188.865 57.6979 188.156 58.3438 187.406 58.9062C186.677 59.4688 185.906 59.9167 185.094 60.25C184.281 60.5833 183.448 60.75 182.594 60.75C181.344 60.75 180.427 60.375 179.844 59.625C179.26 58.875 178.969 57.9062 178.969 56.7188C178.969 56.6354 178.969 56.4583 178.969 56.1875C178.99 55.8958 179.021 55.6667 179.062 55.5C178.021 56.8125 177.021 57.8958 176.062 58.75C175.125 59.6042 174.208 60.2812 173.312 60.7812C172.438 61.2812 171.583 61.625 170.75 61.8125C169.938 62.0208 169.156 62.125 168.406 62.125C167.615 62.125 166.865 61.9896 166.156 61.7188C165.469 61.4688 164.865 61.0938 164.344 60.5938C163.802 60.0938 163.385 59.4792 163.094 58.75C162.781 58.0208 162.625 57.1771 162.625 56.2188C162.625 55.0312 162.896 53.6771 163.438 52.1562C163.958 50.6146 164.896 48.9583 166.25 47.1875C167.396 45.6667 168.583 44.3854 169.812 43.3438C171.062 42.3021 172.281 41.4688 173.469 40.8438C174.677 40.1979 175.823 39.7396 176.906 39.4688C177.99 39.1979 178.958 39.0625 179.812 39.0625C181.729 39.0625 183.177 39.3854 184.156 40.0312C185.135 40.6562 185.729 41.625 185.938 42.9375C186.354 42.4167 186.792 41.8958 187.25 41.375C187.708 40.8542 188.177 40.3229 188.656 39.7812L189.656 40.2188ZM180.062 52.0938C180.333 51.6562 180.667 51.1042 181.062 50.4375C181.458 49.75 181.875 49.0521 182.312 48.3438C182.75 47.6146 183.177 46.9167 183.594 46.25C184.01 45.5833 184.375 45.0208 184.688 44.5625C184.688 44.375 184.656 44.0729 184.594 43.6562C184.552 43.2396 184.417 42.8229 184.188 42.4062C183.958 41.9688 183.594 41.5938 183.094 41.2812C182.594 40.9688 181.896 40.8125 181 40.8125C180.354 40.8125 179.625 40.9167 178.812 41.125C178.021 41.3125 177.167 41.6458 176.25 42.125C175.354 42.5833 174.427 43.1979 173.469 43.9688C172.51 44.7396 171.552 45.6979 170.594 46.8438C169.156 48.5729 168.042 50.3125 167.25 52.0625C166.479 53.7917 166.094 55.3542 166.094 56.75C166.094 57.9375 166.365 58.8542 166.906 59.5C167.448 60.1458 168.219 60.4688 169.219 60.4688C170.365 60.4688 171.438 60.2188 172.438 59.7188C173.438 59.1979 174.375 58.5312 175.25 57.7188C176.125 56.9062 176.958 56.0104 177.75 55.0312C178.542 54.0312 179.312 53.0521 180.062 52.0938ZM203.156 36.4688C203.052 36.6562 202.917 36.8646 202.75 37.0938C202.583 37.3021 202.417 37.5521 202.25 37.8438C202.104 38.1146 201.969 38.4375 201.844 38.8125C201.74 39.1875 201.688 39.6354 201.688 40.1562C201.688 40.5938 201.792 41.1875 202 41.9375C202.229 42.6875 202.469 43.5521 202.719 44.5312C202.969 45.4896 203.198 46.5417 203.406 47.6875C203.635 48.8125 203.75 49.9792 203.75 51.1875C203.75 52.9583 203.51 54.5208 203.031 55.875C202.552 57.2292 201.917 58.3854 201.125 59.3438C202.75 58.4688 204.344 57.2188 205.906 55.5938C207.469 53.9479 209.042 51.8646 210.625 49.3438L211.688 50.2812C210.792 51.7604 209.771 53.2292 208.625 54.6875C207.5 56.125 206.26 57.4271 204.906 58.5938C203.552 59.7396 202.094 60.6667 200.531 61.375C198.969 62.1042 197.312 62.4688 195.562 62.4688C194 62.4688 192.688 62.0938 191.625 61.3438C190.542 60.6146 189.875 59.5104 189.625 58.0312L190.75 57.8125C190.75 57.9375 190.812 58.1458 190.938 58.4375C191.042 58.7083 191.219 58.9792 191.469 59.25C191.719 59.5208 192.062 59.7604 192.5 59.9688C192.917 60.1771 193.438 60.2812 194.062 60.2812C194.896 60.2812 195.635 60.0938 196.281 59.7188C196.927 59.3229 197.49 58.8125 197.969 58.1875C198.448 57.5625 198.854 56.8542 199.188 56.0625C199.521 55.25 199.781 54.4167 199.969 53.5625C200.177 52.7083 200.323 51.875 200.406 51.0625C200.49 50.25 200.531 49.5104 200.531 48.8438C200.531 48.1771 200.5 47.4375 200.438 46.625C200.396 45.8125 200.344 45.0417 200.281 44.3125C200.219 43.5625 200.156 42.9167 200.094 42.375C200.052 41.8125 200.031 41.4479 200.031 41.2812V41.2188C199.76 41.5104 199.438 41.9375 199.062 42.5C198.688 43.0625 198.281 43.6771 197.844 44.3438C197.427 45.0104 197 45.6875 196.562 46.375C196.146 47.0625 195.76 47.6875 195.406 48.25C195.073 48.8125 194.792 49.2812 194.562 49.6562C194.354 50.0104 194.25 50.1979 194.25 50.2188L193.125 49.3438C193.146 49.3229 193.406 48.875 193.906 48C194.406 47.125 195.062 46.0208 195.875 44.6875C196.708 43.3333 197.646 41.8438 198.688 40.2188C199.729 38.5729 200.802 36.9792 201.906 35.4375L203.156 36.4688ZM224.469 54.0312C223.656 54.9271 222.833 55.7604 222 56.5312C221.167 57.2812 220.344 57.9375 219.531 58.5C218.719 59.0625 217.917 59.5104 217.125 59.8438C216.354 60.1562 215.604 60.3125 214.875 60.3125C214.062 60.3125 213.323 60.1667 212.656 59.875C212.01 59.5625 211.448 59.125 210.969 58.5625C210.51 58 210.156 57.3333 209.906 56.5625C209.656 55.7917 209.531 54.9375 209.531 54C209.531 52.75 209.792 51.4479 210.312 50.0938C210.833 48.7396 211.5 47.4271 212.312 46.1562C213.146 44.8646 214.062 43.6458 215.062 42.5C216.083 41.3542 217.073 40.3646 218.031 39.5312L219.375 40.4688C219.125 40.8229 218.781 41.3125 218.344 41.9375C217.906 42.5625 217.438 43.2917 216.938 44.125C216.438 44.9375 215.927 45.8229 215.406 46.7812C214.906 47.7396 214.448 48.7188 214.031 49.7188C213.615 50.7188 213.271 51.7188 213 52.7188C212.75 53.7188 212.625 54.6562 212.625 55.5312C212.625 55.9479 212.656 56.3542 212.719 56.75C212.802 57.125 212.927 57.4583 213.094 57.75C213.281 58.0417 213.521 58.2708 213.812 58.4375C214.104 58.6042 214.479 58.6875 214.938 58.6875C215.667 58.6875 216.458 58.4688 217.312 58.0312C218.188 57.5729 219.083 56.9583 220 56.1875C220.938 55.3958 221.885 54.4792 222.844 53.4375C223.823 52.3958 224.781 51.2812 225.719 50.0938C226.656 48.9062 227.562 47.6875 228.438 46.4375C229.312 45.1667 230.125 43.9167 230.875 42.6875C231.542 41.5833 232.208 40.4792 232.875 39.375C233.542 38.25 234.208 37.1562 234.875 36.0938L236.344 36.8438C236.323 36.8854 236.125 37.2812 235.75 38.0312C235.396 38.7604 234.917 39.7604 234.312 41.0312C233.708 42.2812 233 43.7396 232.188 45.4062C231.396 47.0521 230.552 48.8125 229.656 50.6875C228.76 52.5417 227.844 54.4479 226.906 56.4062C225.99 58.3646 225.094 60.2708 224.219 62.125C227.156 60.5 229.812 58.5729 232.188 56.3438C234.583 54.1146 236.635 51.7812 238.344 49.3438L239.5 50.2188C237.688 52.9896 235.438 55.5521 232.75 57.9062C230.062 60.2396 226.823 62.4792 223.031 64.625C221.302 68.3333 219.604 71.7188 217.938 74.7812C216.292 77.8438 214.635 80.4688 212.969 82.6562C211.323 84.8438 209.677 86.5312 208.031 87.7188C206.365 88.9271 204.677 89.5312 202.969 89.5312C201.844 89.5312 200.906 89.1562 200.156 88.4062C199.406 87.6562 199.031 86.5833 199.031 85.1875C199.031 84.0208 199.292 82.8229 199.812 81.5938C200.333 80.3646 201.052 79.125 201.969 77.875C202.885 76.6458 203.979 75.4167 205.25 74.1875C206.5 72.9792 207.875 71.8125 209.375 70.6875C210.854 69.5625 212.406 68.4896 214.031 67.4688C215.677 66.4479 217.344 65.5104 219.031 64.6562C219.469 63.7396 219.938 62.7708 220.438 61.75C220.938 60.75 221.427 59.7812 221.906 58.8438C222.385 57.8854 222.844 56.9896 223.281 56.1562C223.74 55.3021 224.135 54.5938 224.469 54.0312ZM217.594 67.6875C215.198 69.1667 212.969 70.7396 210.906 72.4062C208.865 74.0938 207.094 75.75 205.594 77.375C204.073 79.0208 202.885 80.5625 202.031 82C201.177 83.4375 200.75 84.6562 200.75 85.6562C200.75 86.3229 200.948 86.8542 201.344 87.25C201.719 87.6458 202.208 87.8438 202.812 87.8438C203.625 87.8438 204.469 87.5625 205.344 87C206.198 86.4583 207.062 85.7083 207.938 84.75C208.792 83.7917 209.646 82.6562 210.5 81.3438C211.354 80.0521 212.188 78.6562 213 77.1562C213.833 75.6771 214.635 74.125 215.406 72.5C216.177 70.8958 216.906 69.2917 217.594 67.6875Z" fill="white"/>
</svg>
